<?xml version="1.0" standalone="no"?>
 <!DOCTYPE svg PUBLIC "-//W3C//DTD SVG 1.1//EN" 
 "http://www.w3.org/Graphics/SVG/1.1/DTD/svg11.dtd"> 
<svg xmlns="http://www.w3.org/2000/svg" version="1.1" 
    width="10.16cm" height="4.7625cm" viewBox="0 0 40000 18750 ">
<title>SVG Picture created as anavi-light-controller-brd.svg date 2018/05/08 09:06:48 </title>
  <desc>Picture generated by PCBNEW </desc>
<g style="fill:#000000; fill-opacity:1;stroke:#000000; stroke-opacity:1;
stroke-linecap:round; stroke-linejoin:round; "
 transform="translate(0 0) scale(1 1)">
</g>
<g style="fill:#000000; fill-opacity:0.0; 
stroke:#000000; stroke-width:-0.000393701; stroke-opacity:1; 
stroke-linecap:round; stroke-linejoin:round;">
</g>
<g style="fill:#008484; fill-opacity:0.0; 
stroke:#008484; stroke-width:-0.000393701; stroke-opacity:1; 
stroke-linecap:round; stroke-linejoin:round;">
</g>
<g style="fill:#008484; fill-opacity:0.0; 
stroke:#008484; stroke-width:157.48; stroke-opacity:1; 
stroke-linecap:round; stroke-linejoin:round;">
<path d="M10956 11487
L10956 11937
" />
<path d="M10956 11712
L10168 11712
L10281 11787
L10356 11862
L10393 11937
" />
<path d="M10243 11187
L10206 11149
L10168 11074
L10168 10887
L10206 10812
L10243 10775
L10318 10737
L10393 10737
L10506 10775
L10956 11224
L10956 10737
" />
<path d="M10168 10512
L10956 10250
L10168 9987
" />
</g>
<g style="fill:#008484; fill-opacity:0.0; 
stroke:#008484; stroke-width:39.3701; stroke-opacity:1; 
stroke-linecap:round; stroke-linejoin:round;">
<path d="M22777 13052
L23032 13052
L23062 13037
L23077 13022
L23092 12992
L23092 12932
L23077 12902
L23062 12887
L23032 12872
L22777 12872
" />
<path d="M23002 12737
L23002 12587
" />
<path d="M23092 12767
L22777 12662
L23092 12557
" />
<path d="M23092 12272
L22942 12377
" />
<path d="M23092 12452
L22777 12452
L22777 12332
L22792 12302
L22807 12287
L22837 12272
L22882 12272
L22912 12287
L22927 12302
L22942 12332
L22942 12452
" />
<path d="M22777 12182
L22777 12002
" />
<path d="M23092 12092
L22777 12092
" />
</g>
<g style="fill:#008484; fill-opacity:0.0; 
stroke:#008484; stroke-width:78.7402; stroke-opacity:1; 
stroke-linecap:round; stroke-linejoin:round;">
<path d="M27834 9568
L27834 9324
L27984 9456
L27984 9399
L28003 9362
L28021 9343
L28059 9324
L28153 9324
L28190 9343
L28209 9362
L28228 9399
L28228 9512
L28209 9549
L28190 9568
" />
<path d="M28228 8893
L27965 8687
" />
<path d="M27965 8893
L28228 8687
" />
<path d="M28228 8237
L27834 8237
" />
<path d="M27871 8068
L27853 8050
L27834 8012
L27834 7918
L27853 7881
L27871 7862
L27909 7843
L27946 7843
L28003 7862
L28228 8087
L28228 7843
" />
<path d="M28190 7450
L28209 7468
L28228 7525
L28228 7562
L28209 7618
L28171 7656
L28134 7675
L28059 7693
L28003 7693
L27928 7675
L27890 7656
L27853 7618
L27834 7562
L27834 7525
L27853 7468
L27871 7450
" />
<path d="M31463 12812
L31463 13082
" />
<path d="M31463 12947
L30991 12947
L31058 12992
L31103 13037
L31126 13082
" />
<path d="M31036 12632
L31013 12609
L30991 12564
L30991 12452
L31013 12407
L31036 12384
L31081 12362
L31126 12362
L31193 12384
L31463 12654
L31463 12362
" />
<path d="M30991 12227
L31463 12069
L30991 11912
" />
<path d="M31013 11147
L30991 11192
L30991 11259
L31013 11327
L31058 11372
L31103 11394
L31193 11417
L31261 11417
L31351 11394
L31396 11372
L31441 11327
L31463 11259
L31463 11214
L31441 11147
L31418 11124
L31261 11124
L31261 11214
" />
<path d="M31463 10922
L31148 10922
" />
<path d="M31238 10922
L31193 10899
L31171 10877
L31148 10832
L31148 10787
" />
<path d="M31441 10449
L31463 10494
L31463 10584
L31441 10629
L31396 10652
L31216 10652
L31171 10629
L31148 10584
L31148 10494
L31171 10449
L31216 10427
L31261 10427
L31306 10652
" />
<path d="M31441 10044
L31463 10089
L31463 10179
L31441 10224
L31396 10247
L31216 10247
L31171 10224
L31148 10179
L31148 10089
L31171 10044
L31216 10022
L31261 10022
L31306 10247
" />
<path d="M31148 9819
L31463 9819
" />
<path d="M31193 9819
L31171 9797
L31148 9752
L31148 9684
L31171 9639
L31216 9617
L31463 9617
" />
<path d="M31463 8762
L31238 8920
" />
<path d="M31463 9032
L30991 9032
L30991 8852
L31013 8807
L31036 8785
L31081 8762
L31148 8762
L31193 8785
L31216 8807
L31238 8852
L31238 9032
" />
<path d="M31441 8380
L31463 8425
L31463 8515
L31441 8560
L31396 8582
L31216 8582
L31171 8560
L31148 8515
L31148 8425
L31171 8380
L31216 8357
L31261 8357
L31306 8582
" />
<path d="M31463 7952
L30991 7952
" />
<path d="M31441 7952
L31463 7997
L31463 8087
L31441 8132
L31418 8155
L31373 8177
L31238 8177
L31193 8155
L31171 8132
L31148 8087
L31148 7997
L31171 7952
" />
<path d="M31216 7210
L31238 7142
L31261 7120
L31306 7097
L31373 7097
L31418 7120
L31441 7142
L31463 7187
L31463 7367
L30991 7367
L30991 7210
L31013 7165
L31036 7142
L31081 7120
L31126 7120
L31171 7142
L31193 7165
L31216 7210
L31216 7367
" />
<path d="M31463 6827
L31441 6872
L31396 6895
L30991 6895
" />
<path d="M31148 6445
L31463 6445
" />
<path d="M31148 6647
L31396 6647
L31441 6625
L31463 6580
L31463 6512
L31441 6467
L31418 6445
" />
<path d="M31441 6040
L31463 6085
L31463 6175
L31441 6220
L31396 6242
L31216 6242
L31171 6220
L31148 6175
L31148 6085
L31171 6040
L31216 6017
L31261 6017
L31306 6242
" />
</g>
<g style="fill:#008484; fill-opacity:0.0; 
stroke:#008484; stroke-width:59.0551; stroke-opacity:1; 
stroke-linecap:round; stroke-linejoin:round;">
<path d="M24057 13742
L23952 13592
" />
<path d="M23877 13742
L23877 13427
L23997 13427
L24027 13442
L24042 13457
L24057 13487
L24057 13532
L24042 13562
L24027 13577
L23997 13592
L23877 13592
" />
<path d="M24162 13427
L24372 13742
" />
<path d="M24372 13427
L24162 13742
" />
<path d="M24687 13427
L24867 13427
" />
<path d="M24777 13742
L24777 13427
" />
<path d="M24942 13427
L25152 13742
" />
<path d="M25152 13427
L24942 13742
" />
<path d="M25677 13442
L25647 13427
L25602 13427
L25557 13442
L25527 13472
L25512 13502
L25497 13562
L25497 13607
L25512 13667
L25527 13697
L25557 13727
L25602 13742
L25632 13742
L25677 13727
L25692 13712
L25692 13607
L25632 13607
" />
<path d="M25827 13742
L25827 13427
L26007 13742
L26007 13427
" />
<path d="M26157 13742
L26157 13427
L26232 13427
L26277 13442
L26307 13472
L26322 13502
L26337 13562
L26337 13607
L26322 13667
L26307 13697
L26277 13727
L26232 13742
L26157 13742
" />
<path d="M23332 5527
L23377 5542
L23452 5542
L23482 5527
L23497 5512
L23512 5482
L23512 5452
L23497 5422
L23482 5407
L23452 5392
L23392 5377
L23362 5362
L23347 5347
L23332 5317
L23332 5287
L23347 5257
L23362 5242
L23392 5227
L23467 5227
L23512 5242
" />
<path d="M23647 5542
L23647 5227
L23722 5227
L23767 5242
L23797 5272
L23812 5302
L23827 5362
L23827 5407
L23812 5467
L23797 5497
L23767 5527
L23722 5542
L23647 5542
" />
<path d="M23947 5452
L24097 5452
" />
<path d="M23917 5542
L24022 5227
L24127 5542
" />
<path d="M24457 5527
L24502 5542
L24577 5542
L24607 5527
L24622 5512
L24637 5482
L24637 5452
L24622 5422
L24607 5407
L24577 5392
L24517 5377
L24487 5362
L24472 5347
L24457 5317
L24457 5287
L24472 5257
L24487 5242
L24517 5227
L24592 5227
L24637 5242
" />
<path d="M24952 5512
L24937 5527
L24892 5542
L24862 5542
L24817 5527
L24787 5497
L24772 5467
L24757 5407
L24757 5362
L24772 5302
L24787 5272
L24817 5242
L24862 5227
L24892 5227
L24937 5242
L24952 5257
" />
<path d="M25237 5542
L25087 5542
L25087 5227
" />
<path d="M25747 5242
L25717 5227
L25672 5227
L25627 5242
L25597 5272
L25582 5302
L25567 5362
L25567 5407
L25582 5467
L25597 5497
L25627 5527
L25672 5542
L25702 5542
L25747 5527
L25762 5512
L25762 5407
L25702 5407
" />
<path d="M25897 5542
L25897 5227
L26077 5542
L26077 5227
" />
<path d="M26227 5542
L26227 5227
L26302 5227
L26347 5242
L26377 5272
L26392 5302
L26407 5362
L26407 5407
L26392 5467
L26377 5497
L26347 5527
L26302 5542
L26227 5542
" />
<path d="M26752 5227
L26947 5227
L26842 5347
L26887 5347
L26917 5362
L26932 5377
L26947 5407
L26947 5482
L26932 5512
L26917 5527
L26887 5542
L26797 5542
L26767 5527
L26752 5512
" />
<path d="M27082 5512
L27097 5527
L27082 5542
L27067 5527
L27082 5512
L27082 5542
" />
<path d="M27202 5227
L27397 5227
L27292 5347
L27337 5347
L27367 5362
L27382 5377
L27397 5407
L27397 5482
L27382 5512
L27367 5527
L27337 5542
L27247 5542
L27217 5527
L27202 5512
" />
<path d="M27487 5227
L27592 5542
L27697 5227
" />
</g>
<g style="fill:#008484; fill-opacity:0.0; 
stroke:#008484; stroke-width:78.7402; stroke-opacity:1; 
stroke-linecap:round; stroke-linejoin:round;">
<path d="M17472 16928
L17472 16534
L17603 16815
L17734 16534
L17734 16928
" />
<path d="M18091 16928
L18091 16721
L18072 16684
L18034 16665
L17959 16665
L17922 16684
" />
<path d="M18091 16909
L18053 16928
L17959 16928
L17922 16909
L17903 16871
L17903 16834
L17922 16796
L17959 16778
L18053 16778
L18091 16759
" />
<path d="M18447 16928
L18447 16534
" />
<path d="M18447 16909
L18409 16928
L18334 16928
L18297 16909
L18278 16890
L18259 16853
L18259 16740
L18278 16703
L18297 16684
L18334 16665
L18409 16665
L18447 16684
" />
<path d="M18784 16909
L18747 16928
L18672 16928
L18634 16909
L18616 16871
L18616 16721
L18634 16684
L18672 16665
L18747 16665
L18784 16684
L18803 16721
L18803 16759
L18616 16796
" />
<path d="M19272 16928
L19272 16665
" />
<path d="M19272 16534
L19253 16553
L19272 16571
L19290 16553
L19272 16534
L19272 16571
" />
<path d="M19459 16665
L19459 16928
" />
<path d="M19459 16703
L19478 16684
L19515 16665
L19572 16665
L19609 16684
L19628 16721
L19628 16928
" />
<path d="M20115 16928
L20115 16534
L20265 16534
L20303 16553
L20322 16571
L20340 16609
L20340 16665
L20322 16703
L20303 16721
L20265 16740
L20115 16740
" />
<path d="M20565 16928
L20528 16909
L20509 16871
L20509 16534
" />
<path d="M20772 16928
L20734 16909
L20715 16890
L20697 16853
L20697 16740
L20715 16703
L20734 16684
L20772 16665
L20828 16665
L20865 16684
L20884 16703
L20903 16740
L20903 16853
L20884 16890
L20865 16909
L20828 16928
L20772 16928
" />
<path d="M21034 16665
L21128 16928
L21221 16665
" />
<path d="M21540 16928
L21540 16534
" />
<path d="M21540 16909
L21503 16928
L21428 16928
L21390 16909
L21371 16890
L21353 16853
L21353 16740
L21371 16703
L21390 16684
L21428 16665
L21503 16665
L21540 16684
" />
<path d="M21728 16928
L21728 16665
" />
<path d="M21728 16534
L21709 16553
L21728 16571
L21746 16553
L21728 16534
L21728 16571
" />
<path d="M21878 16665
L21971 16928
L22065 16665
" />
<path d="M22234 16909
L22234 16928
L22215 16965
L22196 16984
" />
<path d="M22834 16721
L22890 16740
L22909 16759
L22927 16796
L22927 16853
L22909 16890
L22890 16909
L22853 16928
L22703 16928
L22703 16534
L22834 16534
L22871 16553
L22890 16571
L22909 16609
L22909 16646
L22890 16684
L22871 16703
L22834 16721
L22703 16721
" />
<path d="M23265 16665
L23265 16928
" />
<path d="M23096 16665
L23096 16871
L23115 16909
L23152 16928
L23209 16928
L23246 16909
L23265 16890
" />
<path d="M23509 16928
L23471 16909
L23452 16871
L23452 16534
" />
<path d="M23827 16665
L23827 16984
L23809 17021
L23790 17040
L23752 17059
L23696 17059
L23659 17040
" />
<path d="M23827 16909
L23790 16928
L23715 16928
L23677 16909
L23659 16890
L23640 16853
L23640 16740
L23659 16703
L23677 16684
L23715 16665
L23790 16665
L23827 16684
" />
<path d="M24184 16928
L24184 16721
L24165 16684
L24127 16665
L24052 16665
L24015 16684
" />
<path d="M24184 16909
L24146 16928
L24052 16928
L24015 16909
L23996 16871
L23996 16834
L24015 16796
L24052 16778
L24146 16778
L24184 16759
" />
<path d="M24371 16928
L24371 16665
" />
<path d="M24371 16740
L24390 16703
L24409 16684
L24446 16665
L24484 16665
" />
<path d="M24615 16928
L24615 16665
" />
<path d="M24615 16534
L24596 16553
L24615 16571
L24634 16553
L24615 16534
L24615 16571
" />
<path d="M24971 16928
L24971 16721
L24952 16684
L24915 16665
L24840 16665
L24802 16684
" />
<path d="M24971 16909
L24933 16928
L24840 16928
L24802 16909
L24784 16871
L24784 16834
L24802 16796
L24840 16778
L24933 16778
L24971 16759
" />
<path d="M25177 16909
L25177 16928
L25158 16965
L25140 16984
" />
<path d="M25646 16721
L25777 16721
" />
<path d="M25833 16928
L25646 16928
L25646 16534
L25833 16534
" />
<path d="M26002 16534
L26002 16853
L26021 16890
L26040 16909
L26077 16928
L26152 16928
L26190 16909
L26208 16890
L26227 16853
L26227 16534
" />
</g>
<g style="fill:#008484; fill-opacity:0.0; 
stroke:#008484; stroke-width:59.0551; stroke-opacity:1; 
stroke-linecap:round; stroke-linejoin:round;">
<path d="M17441 16078
L17441 15684
" />
<path d="M17609 16078
L17609 15871
L17591 15834
L17553 15815
L17497 15815
L17459 15834
L17441 15853
" />
<path d="M17741 15815
L17891 15815
" />
<path d="M17797 15684
L17797 16021
L17816 16059
L17853 16078
L17891 16078
" />
<path d="M17965 15815
L18115 15815
" />
<path d="M18022 15684
L18022 16021
L18040 16059
L18078 16078
L18115 16078
" />
<path d="M18247 15815
L18247 16209
" />
<path d="M18247 15834
L18284 15815
L18359 15815
L18397 15834
L18415 15853
L18434 15890
L18434 16003
L18415 16040
L18397 16059
L18359 16078
L18284 16078
L18247 16059
" />
<path d="M18603 16040
L18622 16059
L18603 16078
L18584 16059
L18603 16040
L18603 16078
" />
<path d="M18603 15834
L18622 15853
L18603 15871
L18584 15853
L18603 15834
L18603 15871
" />
<path d="M19072 15665
L18734 16171
" />
<path d="M19484 15665
L19147 16171
" />
<path d="M19784 16078
L19784 15871
L19765 15834
L19728 15815
L19653 15815
L19615 15834
" />
<path d="M19784 16059
L19747 16078
L19653 16078
L19615 16059
L19597 16021
L19597 15984
L19615 15946
L19653 15928
L19747 15928
L19784 15909
" />
<path d="M19971 15815
L19971 16078
" />
<path d="M19971 15853
L19990 15834
L20028 15815
L20084 15815
L20121 15834
L20140 15871
L20140 16078
" />
<path d="M20496 16078
L20496 15871
L20478 15834
L20440 15815
L20365 15815
L20328 15834
" />
<path d="M20496 16059
L20459 16078
L20365 16078
L20328 16059
L20309 16021
L20309 15984
L20328 15946
L20365 15928
L20459 15928
L20496 15909
" />
<path d="M20646 15815
L20740 16078
L20834 15815
" />
<path d="M20984 16078
L20984 15815
" />
<path d="M20984 15684
L20965 15703
L20984 15721
L21003 15703
L20984 15684
L20984 15721
" />
<path d="M21171 16040
L21190 16059
L21171 16078
L21153 16059
L21171 16040
L21171 16078
" />
<path d="M21303 15815
L21453 15815
" />
<path d="M21359 15684
L21359 16021
L21378 16059
L21415 16078
L21453 16078
" />
<path d="M21734 16059
L21696 16078
L21621 16078
L21584 16059
L21565 16021
L21565 15871
L21584 15834
L21621 15815
L21696 15815
L21734 15834
L21753 15871
L21753 15909
L21565 15946
" />
<path d="M22090 16059
L22052 16078
L21977 16078
L21940 16059
L21921 16040
L21902 16003
L21902 15890
L21921 15853
L21940 15834
L21977 15815
L22052 15815
L22090 15834
" />
<path d="M22259 16078
L22259 15684
" />
<path d="M22427 16078
L22427 15871
L22409 15834
L22371 15815
L22315 15815
L22277 15834
L22259 15853
" />
<path d="M22615 15815
L22615 16078
" />
<path d="M22615 15853
L22634 15834
L22671 15815
L22727 15815
L22765 15834
L22784 15871
L22784 16078
" />
<path d="M23027 16078
L22990 16059
L22971 16040
L22952 16003
L22952 15890
L22971 15853
L22990 15834
L23027 15815
L23084 15815
L23121 15834
L23140 15853
L23159 15890
L23159 16003
L23140 16040
L23121 16059
L23084 16078
L23027 16078
" />
<path d="M23384 16078
L23346 16059
L23327 16021
L23327 15684
" />
<path d="M23590 16078
L23552 16059
L23534 16040
L23515 16003
L23515 15890
L23534 15853
L23552 15834
L23590 15815
L23646 15815
L23684 15834
L23702 15853
L23721 15890
L23721 16003
L23702 16040
L23684 16059
L23646 16078
L23590 16078
" />
<path d="M24058 15815
L24058 16134
L24040 16171
L24021 16190
L23983 16209
L23927 16209
L23890 16190
" />
<path d="M24058 16059
L24021 16078
L23946 16078
L23908 16059
L23890 16040
L23871 16003
L23871 15890
L23890 15853
L23908 15834
L23946 15815
L24021 15815
L24058 15834
" />
<path d="M24208 15815
L24302 16078
" />
<path d="M24396 15815
L24302 16078
L24265 16171
L24246 16190
L24208 16209
" />
<path d="M19037 15292
L18932 15142
" />
<path d="M18857 15292
L18857 14977
L18977 14977
L19007 14992
L19022 15007
L19037 15037
L19037 15082
L19022 15112
L19007 15127
L18977 15142
L18857 15142
" />
<path d="M19292 15277
L19262 15292
L19202 15292
L19172 15277
L19157 15247
L19157 15127
L19172 15097
L19202 15082
L19262 15082
L19292 15097
L19307 15127
L19307 15157
L19157 15187
" />
<path d="M19412 15082
L19487 15292
L19562 15082
" />
<path d="M19682 15262
L19697 15277
L19682 15292
L19667 15277
L19682 15262
L19682 15292
" />
<path d="M20237 15292
L20057 15292
" />
<path d="M20147 15292
L20147 14977
L20117 15022
L20087 15052
L20057 15067
" />
<path d="M20372 15262
L20387 15277
L20372 15292
L20357 15277
L20372 15262
L20372 15292
" />
<path d="M20492 14977
L20687 14977
L20582 15097
L20627 15097
L20657 15112
L20672 15127
L20687 15157
L20687 15232
L20672 15262
L20657 15277
L20627 15292
L20537 15292
L20507 15277
L20492 15262
" />
<path d="M21152 15412
L21137 15397
L21107 15352
L21092 15322
L21077 15277
L21062 15202
L21062 15142
L21077 15067
L21092 15022
L21107 14992
L21137 14947
L21152 14932
" />
<path d="M21407 15277
L21377 15292
L21317 15292
L21287 15277
L21272 15262
L21257 15232
L21257 15142
L21272 15112
L21287 15097
L21317 15082
L21377 15082
L21407 15097
" />
<path d="M21512 15412
L21527 15397
L21557 15352
L21572 15322
L21587 15277
L21602 15202
L21602 15142
L21587 15067
L21572 15022
L21557 14992
L21527 14947
L21512 14932
" />
<path d="M21977 15007
L21992 14992
L22022 14977
L22097 14977
L22127 14992
L22142 15007
L22157 15037
L22157 15067
L22142 15112
L21962 15292
L22157 15292
" />
<path d="M22352 14977
L22382 14977
L22412 14992
L22427 15007
L22442 15037
L22457 15097
L22457 15172
L22442 15232
L22427 15262
L22412 15277
L22382 15292
L22352 15292
L22322 15277
L22307 15262
L22292 15232
L22277 15172
L22277 15097
L22292 15037
L22307 15007
L22322 14992
L22352 14977
" />
<path d="M22757 15292
L22577 15292
" />
<path d="M22667 15292
L22667 14977
L22637 15022
L22607 15052
L22577 15067
" />
<path d="M22937 15112
L22907 15097
L22892 15082
L22877 15052
L22877 15037
L22892 15007
L22907 14992
L22937 14977
L22997 14977
L23027 14992
L23042 15007
L23057 15037
L23057 15052
L23042 15082
L23027 15097
L22997 15112
L22937 15112
L22907 15127
L22892 15142
L22877 15172
L22877 15232
L22892 15262
L22907 15277
L22937 15292
L22997 15292
L23027 15277
L23042 15262
L23057 15232
L23057 15172
L23042 15142
L23027 15127
L22997 15112
" />
</g>
<g style="fill:#008484; fill-opacity:0.0; 
stroke:#008484; stroke-width:98.4252; stroke-opacity:1; 
stroke-linecap:round; stroke-linejoin:round;">
<path d="M18891 14478
L19116 14478
" />
<path d="M18846 14613
L19004 14141
L19161 14613
" />
<path d="M19319 14613
L19319 14141
L19589 14613
L19589 14141
" />
<path d="M19791 14478
L20016 14478
" />
<path d="M19746 14613
L19904 14141
L20061 14613
" />
<path d="M20151 14141
L20309 14613
L20466 14141
" />
<path d="M20624 14613
L20624 14141
" />
<path d="M21433 14613
L21208 14613
L21208 14141
" />
<path d="M21591 14613
L21591 14298
" />
<path d="M21591 14141
L21568 14163
L21591 14186
L21613 14163
L21591 14141
L21591 14186
" />
<path d="M22018 14298
L22018 14681
L21996 14726
L21973 14748
L21928 14771
L21861 14771
L21816 14748
" />
<path d="M22018 14591
L21973 14613
L21883 14613
L21838 14591
L21816 14568
L21793 14523
L21793 14388
L21816 14343
L21838 14321
L21883 14298
L21973 14298
L22018 14321
" />
<path d="M22243 14613
L22243 14141
" />
<path d="M22446 14613
L22446 14366
L22423 14321
L22378 14298
L22311 14298
L22266 14321
L22243 14343
" />
<path d="M22603 14298
L22783 14298
" />
<path d="M22671 14141
L22671 14546
L22693 14591
L22738 14613
L22783 14613
" />
<path d="M23571 14568
L23548 14591
L23481 14613
L23436 14613
L23368 14591
L23323 14546
L23301 14501
L23278 14411
L23278 14343
L23301 14253
L23323 14208
L23368 14163
L23436 14141
L23481 14141
L23548 14163
L23571 14186
" />
<path d="M23841 14613
L23796 14591
L23773 14568
L23751 14523
L23751 14388
L23773 14343
L23796 14321
L23841 14298
L23908 14298
L23953 14321
L23976 14343
L23998 14388
L23998 14523
L23976 14568
L23953 14591
L23908 14613
L23841 14613
" />
<path d="M24201 14298
L24201 14613
" />
<path d="M24201 14343
L24223 14321
L24268 14298
L24336 14298
L24381 14321
L24403 14366
L24403 14613
" />
<path d="M24561 14298
L24741 14298
" />
<path d="M24628 14141
L24628 14546
L24651 14591
L24696 14613
L24741 14613
" />
<path d="M24898 14613
L24898 14298
" />
<path d="M24898 14388
L24920 14343
L24943 14321
L24988 14298
L25033 14298
" />
<path d="M25258 14613
L25213 14591
L25190 14568
L25168 14523
L25168 14388
L25190 14343
L25213 14321
L25258 14298
L25325 14298
L25370 14321
L25393 14343
L25415 14388
L25415 14523
L25393 14568
L25370 14591
L25325 14613
L25258 14613
" />
<path d="M25685 14613
L25640 14591
L25618 14546
L25618 14141
" />
<path d="M25933 14613
L25888 14591
L25865 14546
L25865 14141
" />
<path d="M26293 14591
L26248 14613
L26158 14613
L26113 14591
L26090 14546
L26090 14366
L26113 14321
L26158 14298
L26248 14298
L26293 14321
L26315 14366
L26315 14411
L26090 14456
" />
<path d="M26518 14613
L26518 14298
" />
<path d="M26518 14388
L26540 14343
L26563 14321
L26608 14298
L26653 14298
" />
</g>
<g style="fill:#008484; fill-opacity:0.0; 
stroke:#008484; stroke-width:47.2441; stroke-opacity:1; 
stroke-linecap:round; stroke-linejoin:round;">
<path d="M8357 7151
L8853 7151
" />
<path d="M11042 7151
L10546 7151
" />
<path d="M8357 5671
L8357 7151
" />
<path d="M11042 4785
L11042 7151
" />
</g>
<g style="fill:#008484; fill-opacity:0.0; 
stroke:#008484; stroke-width:150; stroke-opacity:1; 
stroke-linecap:round; stroke-linejoin:round;">
<path d="M5548 9278
L5548 12822
" />
<path d="M3776 9278
L3776 12822
" />
<path d="M3776 12822
L9524 12822
" />
<path d="M9524 12822
L9524 9278
" />
<path d="M9524 9278
L3776 9278
" />
</g>
<g style="fill:#008484; fill-opacity:0.0; 
stroke:#008484; stroke-width:59.0551; stroke-opacity:1; 
stroke-linecap:round; stroke-linejoin:round;">
<path d="M21846 12686
L20429 12686
" />
<path d="M21846 13513
L20429 13513
" />
<path d="M21039 13218
L21039 12981
" />
<path d="M21039 12981
L21157 13100
" />
<path d="M21157 13100
L21078 13178
" />
<path d="M21078 13178
L21078 13080
" />
<path d="M21078 13080
L21098 13100
" />
<path d="M21196 13296
L21196 12903
" />
<path d="M21000 13100
L20803 13100
" />
<path d="M21196 13100
L21000 13296
" />
<path d="M21000 13296
L21000 12903
" />
<path d="M21000 12903
L21196 13100
" />
<path d="M35414 7528
L35611 7528
" />
<circle cx="33839.4" cy="6544.49" r="787.402" /> 
<circle cx="33839.4" cy="8512.99" r="787.402" /> 
<path d="M35414 9497
L35611 9497
" />
<path d="M35414 11465
L35611 11465
" />
<circle cx="33839.4" cy="10481.5" r="787.402" /> 
<circle cx="33839.4" cy="12450" r="787.402" /> 
<path d="M34823 13434
L34823 5560
" />
<path d="M32894 13434
L32894 5560
" />
<path d="M35414 13434
L35414 5560
" />
<path d="M35611 13434
L35611 5560
" />
<path d="M35611 5560
L31752 5560
" />
<path d="M31752 5560
L31752 13434
" />
<path d="M31752 13434
L35611 13434
" />
<path d="M25475 12000
L23475 12000
" />
<path d="M23475 12000
L23475 13000
" />
<path d="M23475 13000
L25475 13000
" />
<path d="M26585 13110
L25975 13110
" />
<path d="M25475 13000
L25475 12000
" />
<path d="M25975 11889
L26585 11889
" />
<path d="M26585 11889
L26585 13110
" />
<circle cx="30250" cy="12950" r="50" /> 
<path d="M30500 12700
L28500 12700
" />
<path d="M30500 14000
L28500 14000
" />
<path d="M30500 12500
L28500 12500
" />
<path d="M30500 12500
L30500 14000
" />
<path d="M28500 12500
L28500 14000
" />
<circle cx="30250" cy="9200" r="50" /> 
<path d="M30500 8950
L28500 8950
" />
<path d="M30500 10250
L28500 10250
" />
<path d="M30500 8750
L28500 8750
" />
<path d="M30500 8750
L30500 10250
" />
<path d="M28500 8750
L28500 10250
" />
<circle cx="30250" cy="5450" r="50" /> 
<path d="M30500 5200
L28500 5200
" />
<path d="M30500 6500
L28500 6500
" />
<path d="M30500 5000
L28500 5000
" />
<path d="M30500 5000
L30500 6500
" />
<path d="M28500 5000
L28500 6500
" />
<path d="M18196 13365
L17803 13365
" />
<path d="M17803 12834
L18196 12834
" />
<path d="M23903 4034
L24296 4034
" />
<path d="M24296 4565
L23903 4565
" />
<path d="M25903 4034
L26296 4034
" />
<path d="M26296 4565
L25903 4565
" />
<path d="M14556 12684
L12784 12684
" />
<path d="M15048 14259
L15048 13668
" />
<path d="M12784 15243
L14556 15243
" />
<path d="M12292 13668
L12292 14259
" />
<path d="M26475 10000
L23475 10000
" />
<path d="M26475 11000
L23475 11000
" />
<path d="M27585 11110
L26975 11110
" />
<path d="M23475 10000
L23475 11000
" />
<path d="M26475 11000
L26475 10000
" />
<path d="M26975 9889
L27585 9889
" />
<path d="M27585 9889
L27585 11110
" />
<path d="M26475 8000
L23475 8000
" />
<path d="M26475 9000
L23475 9000
" />
<path d="M27585 9110
L26975 9110
" />
<path d="M23475 8000
L23475 9000
" />
<path d="M26475 9000
L26475 8000
" />
<path d="M26975 7889
L27585 7889
" />
<path d="M27585 7889
L27585 9110
" />
<path d="M26475 6000
L23475 6000
" />
<path d="M26475 7000
L23475 7000
" />
<path d="M27585 7110
L26975 7110
" />
<path d="M23475 6000
L23475 7000
" />
<path d="M26475 7000
L26475 6000
" />
<path d="M26975 5889
L27585 5889
" />
<path d="M27585 5889
L27585 7110
" />
<path d="M7587 6586
L7312 6586
" />
<path d="M7312 6113
L7587 6113
" />
</g>
<g style="fill:#008484; fill-opacity:1.0; 
stroke:#008484; stroke-width:3.93701; stroke-opacity:1; 
stroke-linecap:round; stroke-linejoin:round;">
<polyline style="fill-rule:evenodd;"
points="18616,15416
17283,15416
17283,14150
17483,14150
17483,15216
18516,15216
18516,14150
17483,14150
17283,14150
17283,14050
18616,14050
18616,15416
" /> 
</g>
<g style="fill:#008484; fill-opacity:1.0; 
stroke:#008484; stroke-width:59.0551; stroke-opacity:1; 
stroke-linecap:round; stroke-linejoin:round;">
</g>
<g style="fill:#008484; fill-opacity:0.0; 
stroke:#008484; stroke-width:59.0551; stroke-opacity:1; 
stroke-linecap:round; stroke-linejoin:round;">
<path d="M22434 4996
L22434 4603
" />
<path d="M22965 4603
L22965 4996
" />
<path d="M22965 6403
L22965 6796
" />
<path d="M22434 6796
L22434 6403
" />
<path d="M22965 8403
L22965 8796
" />
<path d="M22434 8796
L22434 8403
" />
<path d="M10003 4434
L10396 4434
" />
<path d="M10396 3765
L10003 3765
" />
<path d="M11563 11537
L11563 11262
" />
<path d="M12036 11262
L12036 11537
" />
</g>
<g style="fill:#C2C200; fill-opacity:0.0; 
stroke:#C2C200; stroke-width:59.0551; stroke-opacity:1; 
stroke-linecap:round; stroke-linejoin:round;">
<path d="M16971 8587
L16971 8456
" />
<path d="M17178 8399
L17178 8587
L16784 8587
L16784 8399
" />
<path d="M17159 8249
L17178 8193
L17178 8099
L17159 8062
L17140 8043
L17103 8024
L17065 8024
L17028 8043
L17009 8062
L16990 8099
L16971 8174
L16953 8212
L16934 8231
L16896 8249
L16859 8249
L16821 8231
L16803 8212
L16784 8174
L16784 8081
L16803 8024
" />
<path d="M17178 7856
L16784 7856
L16784 7706
L16803 7668
L16821 7649
L16859 7631
L16915 7631
L16953 7649
L16971 7668
L16990 7706
L16990 7856
" />
<path d="M17028 7462
L17028 7162
" />
<path d="M17178 6768
L17178 6993
" />
<path d="M17178 6881
L16784 6881
L16840 6918
L16878 6956
L16896 6993
" />
<path d="M16821 6618
L16803 6600
L16784 6562
L16784 6468
L16803 6431
L16821 6412
L16859 6393
L16896 6393
L16953 6412
L17178 6637
L17178 6393
" />
<path d="M8358 7320
L8437 7556
L8516 7320
" />
<path d="M8718 7556
L8583 7556
" />
<path d="M8651 7556
L8651 7320
L8628 7354
L8606 7376
L8583 7388
" />
</g>
<g style="fill:#008484; fill-opacity:0.0; 
stroke:#008484; stroke-width:59.0551; stroke-opacity:1; 
stroke-linecap:round; stroke-linejoin:round;">
</g>
<g style="fill:#008484; fill-opacity:0.0; 
stroke:#008484; stroke-width:120; stroke-opacity:1; 
stroke-linecap:round; stroke-linejoin:round;">
<path d="M3496 11792
L2896 11792
L2896 11650
L2925 11564
L2982 11507
L3039 11478
L3153 11450
L3239 11450
L3353 11478
L3410 11507
L3467 11564
L3496 11650
L3496 11792
" />
<path d="M3439 10850
L3467 10878
L3496 10964
L3496 11021
L3467 11107
L3410 11164
L3353 11192
L3239 11221
L3153 11221
L3039 11192
L2982 11164
L2925 11107
L2896 11021
L2896 10964
L2925 10878
L2953 10850
" />
<path d="M3496 10278
L3496 10621
" />
<path d="M3496 10450
L2896 10450
L2982 10507
L3039 10564
L3067 10621
" />
</g>
<g style="fill:#C2C200; fill-opacity:0.0; 
stroke:#C2C200; stroke-width:120; stroke-opacity:1; 
stroke-linecap:round; stroke-linejoin:round;">
</g>
<g style="fill:#C2C200; fill-opacity:0.0; 
stroke:#C2C200; stroke-width:59.0551; stroke-opacity:1; 
stroke-linecap:round; stroke-linejoin:round;">
<path d="M20759 12428
L20759 12034
L20853 12034
L20909 12053
L20946 12090
L20965 12128
L20984 12203
L20984 12259
L20965 12334
L20946 12371
L20909 12409
L20853 12428
L20759 12428
" />
<path d="M21359 12428
L21134 12428
" />
<path d="M21246 12428
L21246 12034
L21209 12090
L21171 12128
L21134 12146
" />
<path d="M29462 13465
L29425 13446
L29387 13409
L29331 13353
L29293 13334
L29256 13334
" />
<path d="M29275 13428
L29237 13409
L29200 13371
L29181 13296
L29181 13165
L29200 13090
L29237 13053
L29275 13034
L29350 13034
L29387 13053
L29425 13090
L29443 13165
L29443 13296
L29425 13371
L29387 13409
L29350 13428
L29275 13428
" />
<path d="M29818 13428
L29593 13428
" />
<path d="M29706 13428
L29706 13034
L29668 13090
L29631 13128
L29593 13146
" />
<path d="M29462 9715
L29425 9696
L29387 9659
L29331 9603
L29293 9584
L29256 9584
" />
<path d="M29275 9678
L29237 9659
L29200 9621
L29181 9546
L29181 9415
L29200 9340
L29237 9303
L29275 9284
L29350 9284
L29387 9303
L29425 9340
L29443 9415
L29443 9546
L29425 9621
L29387 9659
L29350 9678
L29275 9678
" />
<path d="M29593 9321
L29612 9303
L29649 9284
L29743 9284
L29781 9303
L29799 9321
L29818 9359
L29818 9396
L29799 9453
L29574 9678
L29818 9678
" />
<path d="M29462 5965
L29425 5946
L29387 5909
L29331 5853
L29293 5834
L29256 5834
" />
<path d="M29275 5928
L29237 5909
L29200 5871
L29181 5796
L29181 5665
L29200 5590
L29237 5553
L29275 5534
L29350 5534
L29387 5553
L29425 5590
L29443 5665
L29443 5796
L29425 5871
L29387 5909
L29350 5928
L29275 5928
" />
<path d="M29574 5534
L29818 5534
L29687 5684
L29743 5684
L29781 5703
L29799 5721
L29818 5759
L29818 5853
L29799 5890
L29781 5909
L29743 5928
L29631 5928
L29593 5909
L29574 5890
" />
</g>
<g style="fill:#C2C200; fill-opacity:0.0; 
stroke:#C2C200; stroke-width:39.3701; stroke-opacity:1; 
stroke-linecap:round; stroke-linejoin:round;">
<path d="M17960 12656
L17881 12544
" />
<path d="M17825 12656
L17825 12420
L17915 12420
L17938 12431
L17949 12443
L17960 12465
L17960 12499
L17949 12521
L17938 12533
L17915 12544
L17825 12544
" />
<path d="M18185 12656
L18050 12656
" />
<path d="M18118 12656
L18118 12420
L18095 12454
L18073 12476
L18050 12488
" />
<path d="M24060 3856
L23981 3744
" />
<path d="M23925 3856
L23925 3620
L24015 3620
L24038 3631
L24049 3643
L24060 3665
L24060 3699
L24049 3721
L24038 3733
L24015 3744
L23925 3744
" />
<path d="M24150 3643
L24161 3631
L24184 3620
L24240 3620
L24263 3631
L24274 3643
L24285 3665
L24285 3688
L24274 3721
L24139 3856
L24285 3856
" />
<path d="M26060 3856
L25981 3744
" />
<path d="M25925 3856
L25925 3620
L26015 3620
L26038 3631
L26049 3643
L26060 3665
L26060 3699
L26049 3721
L26038 3733
L26015 3744
L25925 3744
" />
<path d="M26139 3620
L26285 3620
L26206 3710
L26240 3710
L26263 3721
L26274 3733
L26285 3755
L26285 3811
L26274 3834
L26263 3845
L26240 3856
L26173 3856
L26150 3845
L26139 3834
" />
</g>
<g style="fill:#C2C200; fill-opacity:0.0; 
stroke:#C2C200; stroke-width:59.0551; stroke-opacity:1; 
stroke-linecap:round; stroke-linejoin:round;">
<path d="M13175 16059
L13231 16078
L13325 16078
L13362 16059
L13381 16040
L13400 16003
L13400 15965
L13381 15928
L13362 15909
L13325 15890
L13250 15871
L13212 15853
L13193 15834
L13175 15796
L13175 15759
L13193 15721
L13212 15703
L13250 15684
L13343 15684
L13400 15703
" />
<path d="M13531 15684
L13625 16078
L13700 15796
L13774 16078
L13868 15684
" />
<path d="M14224 16078
L13999 16078
" />
<path d="M14112 16078
L14112 15684
L14074 15740
L14037 15778
L13999 15796
" />
</g>
<g style="fill:#C2C200; fill-opacity:0.0; 
stroke:#C2C200; stroke-width:39.3701; stroke-opacity:1; 
stroke-linecap:round; stroke-linejoin:round;">
<path d="M7410 5934
L7399 5945
L7365 5956
L7343 5956
L7309 5945
L7286 5923
L7275 5900
L7264 5855
L7264 5821
L7275 5776
L7286 5754
L7309 5731
L7343 5720
L7365 5720
L7399 5731
L7410 5743
" />
<path d="M7635 5956
L7500 5956
" />
<path d="M7568 5956
L7568 5720
L7545 5754
L7523 5776
L7500 5788
" />
<path d="M22306 4839
L22194 4918
" />
<path d="M22306 4974
L22070 4974
L22070 4884
L22081 4861
L22093 4850
L22115 4839
L22149 4839
L22171 4850
L22183 4861
L22194 4884
L22194 4974
" />
<path d="M22149 4636
L22306 4636
" />
<path d="M22059 4693
L22228 4749
L22228 4603
" />
<path d="M22306 6639
L22194 6718
" />
<path d="M22306 6774
L22070 6774
L22070 6684
L22081 6661
L22093 6650
L22115 6639
L22149 6639
L22171 6650
L22183 6661
L22194 6684
L22194 6774
" />
<path d="M22070 6425
L22070 6538
L22183 6549
L22171 6538
L22160 6515
L22160 6459
L22171 6436
L22183 6425
L22205 6414
L22261 6414
L22284 6425
L22295 6436
L22306 6459
L22306 6515
L22295 6538
L22284 6549
" />
<path d="M22306 8639
L22194 8718
" />
<path d="M22306 8774
L22070 8774
L22070 8684
L22081 8661
L22093 8650
L22115 8639
L22149 8639
L22171 8650
L22183 8661
L22194 8684
L22194 8774
" />
<path d="M22070 8436
L22070 8481
L22081 8504
L22093 8515
L22126 8538
L22171 8549
L22261 8549
L22284 8538
L22295 8526
L22306 8504
L22306 8459
L22295 8436
L22284 8425
L22261 8414
L22205 8414
L22183 8425
L22171 8436
L22160 8459
L22160 8504
L22171 8526
L22183 8538
L22205 8549
" />
</g>
<g style="fill:#C2C200; fill-opacity:0.0; 
stroke:#C2C200; stroke-width:59.0551; stroke-opacity:1; 
stroke-linecap:round; stroke-linejoin:round;">
<path d="M10160 3534
L10149 3545
L10115 3556
L10093 3556
L10059 3545
L10036 3523
L10025 3500
L10014 3455
L10014 3421
L10025 3376
L10036 3354
L10059 3331
L10093 3320
L10115 3320
L10149 3331
L10160 3343
" />
<path d="M10250 3343
L10261 3331
L10284 3320
L10340 3320
L10363 3331
L10374 3343
L10385 3365
L10385 3388
L10374 3421
L10239 3556
L10385 3556
" />
<path d="M12406 11439
L12294 11518
" />
<path d="M12406 11574
L12170 11574
L12170 11484
L12181 11461
L12193 11450
L12215 11439
L12249 11439
L12271 11450
L12283 11461
L12294 11484
L12294 11574
" />
<path d="M12170 11360
L12170 11203
L12406 11304
" />
</g>
<g style="fill:#000000; fill-opacity:0.0; 
stroke:#000000; stroke-width:59.0551; stroke-opacity:1; 
stroke-linecap:round; stroke-linejoin:round;">
</g>
<g style="fill:#848484; fill-opacity:0.0; 
stroke:#848484; stroke-width:59.0551; stroke-opacity:1; 
stroke-linecap:round; stroke-linejoin:round;">
</g>
<g style="fill:#848484; fill-opacity:0.0; 
stroke:#848484; stroke-width:19.685; stroke-opacity:1; 
stroke-linecap:round; stroke-linejoin:round;">
<path d="M12614 4803
L12614 1555
" />
<path d="M12614 1555
L19503 1555
" />
<path d="M19503 1555
L19897 1555
" />
<path d="M19897 1555
L19897 11299
" />
<path d="M19897 11299
L12614 11299
" />
<path d="M12614 11299
L12614 4803
" />
</g>
<g style="fill:#848484; fill-opacity:0.0; 
stroke:#848484; stroke-width:60; stroke-opacity:1; 
stroke-linecap:round; stroke-linejoin:round;">
<path d="M13100 1700
L19400 1700
" />
<path d="M19400 1700
L19400 4650
" />
<path d="M13100 1700
L13100 4600
" />
<path d="M19402 1692
L13103 3976
" />
<path d="M13103 1692
L19402 3976
" />
<path d="M13103 3976
L19402 3976
" />
</g>
<g style="fill:#848484; fill-opacity:0.0; 
stroke:#848484; stroke-width:19.685; stroke-opacity:1; 
stroke-linecap:round; stroke-linejoin:round;">
<path d="M11117 8132
L11117 4667
" />
<path d="M8282 8132
L11117 8132
" />
<path d="M8282 4667
L8282 8132
" />
<path d="M11117 4667
L8282 4667
" />
<circle cx="7500" cy="15500" r="1200.79" /> 
<path d="M20015 13592
L21984 13592
" />
<path d="M21984 13592
L21984 12607
" />
<path d="M21984 12607
L20015 12607
" />
<path d="M20015 12607
L20015 13592
" />
<path d="M31674 13512
L31674 5481
" />
<path d="M35689 13512
L31674 13512
" />
<path d="M35689 5481
L35689 13512
" />
<path d="M31674 5481
L35689 5481
" />
<path d="M26663 11811
L23278 11811
" />
<path d="M26663 13188
L23278 13188
" />
<path d="M26663 11811
L26663 13188
" />
<path d="M23278 11811
L23278 13188
" />
<path d="M17212 12785
L18787 12785
" />
<path d="M17212 13414
L18787 13414
" />
<path d="M17212 12785
L17212 13414
" />
<path d="M18787 12785
L18787 13414
" />
<path d="M24887 4614
L23312 4614
" />
<path d="M24887 3985
L23312 3985
" />
<path d="M24887 4614
L24887 3985
" />
<path d="M23312 4614
L23312 3985
" />
<path d="M26887 4614
L25312 4614
" />
<path d="M26887 3985
L25312 3985
" />
<path d="M26887 4614
L26887 3985
" />
<path d="M25312 4614
L25312 3985
" />
<path d="M11898 12487
L11800 12487
" />
<path d="M11800 12487
L11800 12586
" />
<path d="M11898 15440
L11800 15440
" />
<path d="M11800 15440
L11800 15342
" />
<path d="M15540 15342
L15540 15440
" />
<path d="M15540 15440
L15442 15440
" />
<path d="M15540 12586
L15540 12487
" />
<path d="M15540 12487
L15442 12487
" />
<path d="M15442 15440
L11898 15440
" />
<path d="M15540 12586
L15540 15342
" />
<path d="M11898 12487
L15442 12487
" />
<path d="M11800 15342
L11800 12586
" />
<path d="M27663 9811
L23274 9811
" />
<path d="M27663 11188
L23274 11188
" />
<path d="M27663 9811
L27663 11188
" />
<path d="M23274 9811
L23274 11188
" />
<path d="M27663 7811
L23274 7811
" />
<path d="M27663 9188
L23274 9188
" />
<path d="M27663 7811
L27663 9188
" />
<path d="M23274 7811
L23274 9188
" />
<path d="M27663 5811
L23274 5811
" />
<path d="M27663 7188
L23274 7188
" />
<path d="M27663 5811
L27663 7188
" />
<path d="M23274 5811
L23274 7188
" />
<path d="M8178 6645
L6721 6645
" />
<path d="M8178 6054
L6721 6054
" />
<path d="M8178 6645
L8178 6054
" />
<path d="M6721 6645
L6721 6054
" />
<circle cx="33000" cy="3500" r="1200.79" /> 
<circle cx="7500" cy="3500" r="1200.79" /> 
<circle cx="33000" cy="15500" r="1200.79" /> 
<path d="M23014 4012
L23014 5587
" />
<path d="M22385 4012
L22385 5587
" />
<path d="M23014 4012
L22385 4012
" />
<path d="M23014 5587
L22385 5587
" />
<path d="M22385 7387
L22385 5812
" />
<path d="M23014 7387
L23014 5812
" />
<path d="M22385 7387
L23014 7387
" />
<path d="M22385 5812
L23014 5812
" />
<path d="M22385 9387
L22385 7812
" />
<path d="M23014 9387
L23014 7812
" />
<path d="M22385 9387
L23014 9387
" />
<path d="M22385 7812
L23014 7812
" />
<path d="M11105 4493
L9294 4493
" />
<path d="M11105 3706
L9294 3706
" />
<path d="M11105 4493
L11105 3706
" />
<path d="M9294 4493
L9294 3706
" />
<path d="M11504 12128
L11504 10671
" />
<path d="M12095 12128
L12095 10671
" />
<path d="M11504 12128
L12095 12128
" />
<path d="M11504 10671
L12095 10671
" />
</g>
<g style="fill:#848484; fill-opacity:0.0; 
stroke:#848484; stroke-width:59.0551; stroke-opacity:1; 
stroke-linecap:round; stroke-linejoin:round;">
<path d="M14751 3052
L14751 2658
L14976 3052
L14976 2658
" />
<path d="M15219 3052
L15182 3033
L15163 3014
L15144 2977
L15144 2864
L15163 2827
L15182 2808
L15219 2789
L15276 2789
L15313 2808
L15332 2827
L15350 2864
L15350 2977
L15332 3014
L15313 3033
L15276 3052
L15219 3052
" />
<path d="M16044 3014
L16025 3033
L15969 3052
L15932 3052
L15875 3033
L15838 2995
L15819 2958
L15800 2883
L15800 2827
L15819 2752
L15838 2714
L15875 2677
L15932 2658
L15969 2658
L16025 2677
L16044 2695
" />
<path d="M16269 3052
L16232 3033
L16213 3014
L16194 2977
L16194 2864
L16213 2827
L16232 2808
L16269 2789
L16325 2789
L16363 2808
L16382 2827
L16400 2864
L16400 2977
L16382 3014
L16363 3033
L16325 3052
L16269 3052
" />
<path d="M16569 2789
L16569 3183
" />
<path d="M16569 2808
L16607 2789
L16682 2789
L16719 2808
L16738 2827
L16757 2864
L16757 2977
L16738 3014
L16719 3033
L16682 3052
L16607 3052
L16569 3033
" />
<path d="M16925 2789
L16925 3183
" />
<path d="M16925 2808
L16963 2789
L17038 2789
L17075 2808
L17094 2827
L17113 2864
L17113 2977
L17094 3014
L17075 3033
L17038 3052
L16963 3052
L16925 3033
" />
<path d="M17431 3033
L17394 3052
L17319 3052
L17282 3033
L17263 2995
L17263 2845
L17282 2808
L17319 2789
L17394 2789
L17431 2808
L17450 2845
L17450 2883
L17263 2920
" />
<path d="M17619 3052
L17619 2789
" />
<path d="M17619 2864
L17638 2827
L17656 2808
L17694 2789
L17731 2789
" />
</g>
<g style="fill:#000000; fill-opacity:0.0; 
stroke:#000000; stroke-width:59.0551; stroke-opacity:1; 
stroke-linecap:round; stroke-linejoin:round;">
</g>
<g style="fill:#C2C200; fill-opacity:0.0; 
stroke:#C2C200; stroke-width:59.0551; stroke-opacity:1; 
stroke-linecap:round; stroke-linejoin:round;">
<path d="M9912 3192
L9732 3192
" />
<path d="M9822 3192
L9822 2877
L9792 2922
L9762 2952
L9732 2967
" />
<path d="M10107 2877
L10137 2877
L10167 2892
L10182 2907
L10197 2937
L10212 2997
L10212 3072
L10197 3132
L10182 3162
L10167 3177
L10137 3192
L10107 3192
L10077 3177
L10062 3162
L10047 3132
L10032 3072
L10032 2997
L10047 2937
L10062 2907
L10077 2892
L10107 2877
" />
<path d="M10482 2982
L10482 3192
" />
<path d="M10347 2982
L10347 3147
L10362 3177
L10392 3192
L10437 3192
L10467 3177
L10482 3162
" />
<path d="M10737 3027
L10632 3027
" />
<path d="M10632 3192
L10632 2877
L10782 2877
" />
<path d="M6962 7042
L6782 7042
" />
<path d="M6872 7042
L6872 6727
L6842 6772
L6812 6802
L6782 6817
" />
<path d="M7157 6727
L7187 6727
L7217 6742
L7232 6757
L7247 6787
L7262 6847
L7262 6922
L7247 6982
L7232 7012
L7217 7027
L7187 7042
L7157 7042
L7127 7027
L7112 7012
L7097 6982
L7082 6922
L7082 6847
L7097 6787
L7112 6757
L7127 6742
L7157 6727
" />
<path d="M7457 6727
L7487 6727
L7517 6742
L7532 6757
L7547 6787
L7562 6847
L7562 6922
L7547 6982
L7532 7012
L7517 7027
L7487 7042
L7457 7042
L7427 7027
L7412 7012
L7397 6982
L7382 6922
L7382 6847
L7397 6787
L7412 6757
L7427 6742
L7457 6727
" />
<path d="M7697 6832
L7697 7042
" />
<path d="M7697 6862
L7712 6847
L7742 6832
L7787 6832
L7817 6847
L7832 6877
L7832 7042
" />
<path d="M8087 6877
L7982 6877
" />
<path d="M7982 7042
L7982 6727
L8132 6727
" />
<path d="M22593 9147
L22581 9132
L22570 9102
L22570 9027
L22581 8997
L22593 8982
L22615 8967
L22638 8967
L22671 8982
L22806 9162
L22806 8967
" />
<path d="M22593 8847
L22581 8832
L22570 8802
L22570 8727
L22581 8697
L22593 8682
L22615 8667
L22638 8667
L22671 8682
L22806 8862
L22806 8667
" />
<path d="M22570 8472
L22570 8442
L22581 8412
L22593 8397
L22615 8382
L22660 8367
L22716 8367
L22761 8382
L22784 8397
L22795 8412
L22806 8442
L22806 8472
L22795 8502
L22784 8517
L22761 8532
L22716 8547
L22660 8547
L22615 8532
L22593 8517
L22581 8502
L22570 8472
" />
<path d="M22806 8052
L22694 8157
" />
<path d="M22806 8232
L22570 8232
L22570 8112
L22581 8082
L22593 8067
L22615 8052
L22649 8052
L22671 8067
L22683 8082
L22694 8112
L22694 8232
" />
</g>
<g style="fill:#C2C200; fill-opacity:0.0; 
stroke:#C2C200; stroke-width:78.7402; stroke-opacity:1; 
stroke-linecap:round; stroke-linejoin:round;">
<path d="M22607 7197
L22592 7182
L22577 7152
L22577 7077
L22592 7047
L22607 7032
L22637 7017
L22667 7017
L22712 7032
L22892 7212
L22892 7017
" />
<path d="M22607 6897
L22592 6882
L22577 6852
L22577 6777
L22592 6747
L22607 6732
L22637 6717
L22667 6717
L22712 6732
L22892 6912
L22892 6717
" />
<path d="M22577 6522
L22577 6492
L22592 6462
L22607 6447
L22637 6432
L22697 6417
L22772 6417
L22832 6432
L22862 6447
L22877 6462
L22892 6492
L22892 6522
L22877 6552
L22862 6567
L22832 6582
L22772 6597
L22697 6597
L22637 6582
L22607 6567
L22592 6552
L22577 6522
" />
<path d="M22892 6102
L22742 6207
" />
<path d="M22892 6282
L22577 6282
L22577 6162
L22592 6132
L22607 6117
L22637 6102
L22682 6102
L22712 6117
L22727 6132
L22742 6162
L22742 6282
" />
<path d="M22557 5397
L22542 5382
L22527 5352
L22527 5277
L22542 5247
L22557 5232
L22587 5217
L22617 5217
L22662 5232
L22842 5412
L22842 5217
" />
<path d="M22557 5097
L22542 5082
L22527 5052
L22527 4977
L22542 4947
L22557 4932
L22587 4917
L22617 4917
L22662 4932
L22842 5112
L22842 4917
" />
<path d="M22527 4722
L22527 4692
L22542 4662
L22557 4647
L22587 4632
L22647 4617
L22722 4617
L22782 4632
L22812 4647
L22827 4662
L22842 4692
L22842 4722
L22827 4752
L22812 4767
L22782 4782
L22722 4797
L22647 4797
L22587 4782
L22557 4767
L22542 4752
L22527 4722
" />
<path d="M22842 4302
L22692 4407
" />
<path d="M22842 4482
L22527 4482
L22527 4362
L22542 4332
L22557 4317
L22587 4302
L22632 4302
L22662 4317
L22677 4332
L22692 4362
L22692 4482
" />
</g>
<g style="fill:#C2C200; fill-opacity:0.0; 
stroke:#C2C200; stroke-width:59.0551; stroke-opacity:1; 
stroke-linecap:round; stroke-linejoin:round;">
<path d="M19815 13842
L19815 13527
" />
<path d="M19995 13842
L19860 13662
" />
<path d="M19995 13527
L19815 13707
" />
<path d="M20130 13842
L20130 13527
L20250 13527
L20280 13542
L20295 13557
L20310 13587
L20310 13632
L20295 13662
L20280 13677
L20250 13692
L20130 13692
" />
<path d="M20445 13722
L20685 13722
" />
<path d="M20805 13527
L21000 13527
L20895 13647
L20940 13647
L20970 13662
L20985 13677
L21000 13707
L21000 13782
L20985 13812
L20970 13827
L20940 13842
L20850 13842
L20820 13827
L20805 13812
" />
<path d="M21120 13557
L21135 13542
L21164 13527
L21239 13527
L21269 13542
L21284 13557
L21299 13587
L21299 13617
L21284 13662
L21105 13842
L21299 13842
" />
<path d="M21599 13842
L21419 13842
" />
<path d="M21509 13842
L21509 13527
L21479 13572
L21449 13602
L21419 13617
" />
<path d="M21869 13527
L21809 13527
L21779 13542
L21764 13557
L21734 13602
L21719 13662
L21719 13782
L21734 13812
L21749 13827
L21779 13842
L21839 13842
L21869 13827
L21884 13812
L21899 13782
L21899 13707
L21884 13677
L21869 13662
L21839 13647
L21779 13647
L21749 13662
L21734 13677
L21719 13707
" />
<path d="M22034 13677
L22139 13677
" />
<path d="M22184 13842
L22034 13842
L22034 13527
L22184 13527
" />
<path d="M22499 13812
L22484 13827
L22439 13842
L22409 13842
L22364 13827
L22334 13797
L22319 13767
L22304 13707
L22304 13662
L22319 13602
L22334 13572
L22364 13542
L22409 13527
L22439 13527
L22484 13542
L22499 13557
" />
<path d="M28543 13892
L28543 13577
" />
<path d="M28790 13892
L28711 13742
" />
<path d="M28655 13892
L28655 13577
L28745 13577
L28768 13592
L28779 13607
L28790 13637
L28790 13682
L28779 13712
L28768 13727
L28745 13742
L28655 13742
" />
<path d="M28970 13727
L28891 13727
" />
<path d="M28891 13892
L28891 13577
L29004 13577
" />
<path d="M29128 13712
L29105 13697
L29094 13682
L29083 13652
L29083 13637
L29094 13607
L29105 13592
L29128 13577
L29173 13577
L29195 13592
L29206 13607
L29218 13637
L29218 13652
L29206 13682
L29195 13697
L29173 13712
L29128 13712
L29105 13727
L29094 13742
L29083 13772
L29083 13832
L29094 13862
L29105 13877
L29128 13892
L29173 13892
L29195 13877
L29206 13862
L29218 13832
L29218 13772
L29206 13742
L29195 13727
L29173 13712
" />
<path d="M29296 13577
L29454 13577
L29353 13892
" />
<path d="M29533 13607
L29544 13592
L29566 13577
L29623 13577
L29645 13592
L29656 13607
L29668 13637
L29668 13667
L29656 13712
L29521 13892
L29668 13892
" />
<path d="M29893 13892
L29758 13892
" />
<path d="M29825 13892
L29825 13577
L29803 13622
L29780 13652
L29758 13667
" />
<path d="M29994 13892
L29994 13577
L30084 13577
L30106 13592
L30118 13607
L30129 13637
L30129 13682
L30118 13712
L30106 13727
L30084 13742
L29994 13742
" />
<path d="M30309 13727
L30343 13742
L30354 13757
L30365 13787
L30365 13832
L30354 13862
L30343 13877
L30320 13892
L30230 13892
L30230 13577
L30309 13577
L30331 13592
L30343 13607
L30354 13637
L30354 13667
L30343 13697
L30331 13712
L30309 13727
L30230 13727
" />
<path d="M30545 13727
L30466 13727
" />
<path d="M30466 13892
L30466 13577
L30579 13577
" />
<path d="M28543 10092
L28543 9777
" />
<path d="M28790 10092
L28711 9942
" />
<path d="M28655 10092
L28655 9777
L28745 9777
L28768 9792
L28779 9807
L28790 9837
L28790 9882
L28779 9912
L28768 9927
L28745 9942
L28655 9942
" />
<path d="M28970 9927
L28891 9927
" />
<path d="M28891 10092
L28891 9777
L29004 9777
" />
<path d="M29128 9912
L29105 9897
L29094 9882
L29083 9852
L29083 9837
L29094 9807
L29105 9792
L29128 9777
L29173 9777
L29195 9792
L29206 9807
L29218 9837
L29218 9852
L29206 9882
L29195 9897
L29173 9912
L29128 9912
L29105 9927
L29094 9942
L29083 9972
L29083 10032
L29094 10062
L29105 10077
L29128 10092
L29173 10092
L29195 10077
L29206 10062
L29218 10032
L29218 9972
L29206 9942
L29195 9927
L29173 9912
" />
<path d="M29296 9777
L29454 9777
L29353 10092
" />
<path d="M29533 9807
L29544 9792
L29566 9777
L29623 9777
L29645 9792
L29656 9807
L29668 9837
L29668 9867
L29656 9912
L29521 10092
L29668 10092
" />
<path d="M29893 10092
L29758 10092
" />
<path d="M29825 10092
L29825 9777
L29803 9822
L29780 9852
L29758 9867
" />
<path d="M29994 10092
L29994 9777
L30084 9777
L30106 9792
L30118 9807
L30129 9837
L30129 9882
L30118 9912
L30106 9927
L30084 9942
L29994 9942
" />
<path d="M30309 9927
L30343 9942
L30354 9957
L30365 9987
L30365 10032
L30354 10062
L30343 10077
L30320 10092
L30230 10092
L30230 9777
L30309 9777
L30331 9792
L30343 9807
L30354 9837
L30354 9867
L30343 9897
L30331 9912
L30309 9927
L30230 9927
" />
<path d="M30545 9927
L30466 9927
" />
<path d="M30466 10092
L30466 9777
L30579 9777
" />
<path d="M28543 6392
L28543 6077
" />
<path d="M28790 6392
L28711 6242
" />
<path d="M28655 6392
L28655 6077
L28745 6077
L28768 6092
L28779 6107
L28790 6137
L28790 6182
L28779 6212
L28768 6227
L28745 6242
L28655 6242
" />
<path d="M28970 6227
L28891 6227
" />
<path d="M28891 6392
L28891 6077
L29004 6077
" />
<path d="M29128 6212
L29105 6197
L29094 6182
L29083 6152
L29083 6137
L29094 6107
L29105 6092
L29128 6077
L29173 6077
L29195 6092
L29206 6107
L29218 6137
L29218 6152
L29206 6182
L29195 6197
L29173 6212
L29128 6212
L29105 6227
L29094 6242
L29083 6272
L29083 6332
L29094 6362
L29105 6377
L29128 6392
L29173 6392
L29195 6377
L29206 6362
L29218 6332
L29218 6272
L29206 6242
L29195 6227
L29173 6212
" />
<path d="M29296 6077
L29454 6077
L29353 6392
" />
<path d="M29533 6107
L29544 6092
L29566 6077
L29623 6077
L29645 6092
L29656 6107
L29668 6137
L29668 6167
L29656 6212
L29521 6392
L29668 6392
" />
<path d="M29893 6392
L29758 6392
" />
<path d="M29825 6392
L29825 6077
L29803 6122
L29780 6152
L29758 6167
" />
<path d="M29994 6392
L29994 6077
L30084 6077
L30106 6092
L30118 6107
L30129 6137
L30129 6182
L30118 6212
L30106 6227
L30084 6242
L29994 6242
" />
<path d="M30309 6227
L30343 6242
L30354 6257
L30365 6287
L30365 6332
L30354 6362
L30343 6377
L30320 6392
L30230 6392
L30230 6077
L30309 6077
L30331 6092
L30343 6107
L30354 6137
L30354 6167
L30343 6197
L30331 6212
L30309 6227
L30230 6227
" />
<path d="M30545 6227
L30466 6227
" />
<path d="M30466 6392
L30466 6077
L30579 6077
" />
<path d="M8659 6542
L8547 6542
L8547 6227
" />
<path d="M8738 6542
L8738 6227
L8794 6227
L8828 6242
L8850 6272
L8861 6302
L8873 6362
L8873 6407
L8861 6467
L8850 6497
L8828 6527
L8794 6542
L8738 6542
" />
<path d="M9098 6542
L8963 6542
" />
<path d="M9030 6542
L9030 6227
L9008 6272
L8985 6302
L8963 6317
" />
<path d="M9323 6542
L9188 6542
" />
<path d="M9255 6542
L9255 6227
L9233 6272
L9210 6302
L9188 6317
" />
<path d="M9548 6542
L9413 6542
" />
<path d="M9480 6542
L9480 6227
L9458 6272
L9435 6302
L9413 6317
" />
<path d="M9626 6227
L9784 6227
L9683 6542
" />
<path d="M9863 6527
L9896 6542
L9953 6542
L9975 6527
L9986 6512
L9998 6482
L9998 6452
L9986 6422
L9975 6407
L9953 6392
L9908 6377
L9885 6362
L9874 6347
L9863 6317
L9863 6287
L9874 6257
L9885 6242
L9908 6227
L9964 6227
L9998 6242
" />
<path d="M10076 6227
L10223 6227
L10144 6347
L10178 6347
L10200 6362
L10211 6377
L10223 6407
L10223 6482
L10211 6512
L10200 6527
L10178 6542
L10110 6542
L10088 6527
L10076 6512
" />
<path d="M10301 6227
L10448 6227
L10369 6347
L10403 6347
L10425 6362
L10436 6377
L10448 6407
L10448 6482
L10436 6512
L10425 6527
L10403 6542
L10335 6542
L10313 6527
L10301 6512
" />
<path d="M10515 6227
L10650 6227
" />
<path d="M10583 6542
L10583 6227
" />
<path d="M10864 6542
L10785 6392
" />
<path d="M10729 6542
L10729 6227
L10819 6227
L10841 6242
L10852 6257
L10864 6287
L10864 6332
L10852 6362
L10841 6377
L10819 6392
L10729 6392
" />
</g>
<g style="fill:#C2C200; fill-opacity:0.0; 
stroke:#C2C200; stroke-width:19.685; stroke-opacity:1; 
stroke-linecap:round; stroke-linejoin:round;">
<path d="M19405 1692
L19405 11141
" />
<path d="M19402 11141
L13103 11141
" />
<path d="M13103 11141
L13103 1692
" />
<path d="M13103 1692
L19402 1692
" />
</g>
<g style="fill:#C2C200; fill-opacity:0.0; 
stroke:#C2C200; stroke-width:59.0551; stroke-opacity:1; 
stroke-linecap:round; stroke-linejoin:round;">
<path d="M11018 5671
L8381 5671
" />
<path d="M11018 5671
L11018 7128
" />
<path d="M8381 5671
L8381 7128
" />
<path d="M11018 7128
L8381 7128
" />
<path d="M21196 13296
L21196 12903
" />
<path d="M21196 13100
L21000 13296
" />
<path d="M21000 12903
L21196 13100
" />
<path d="M21000 13296
L21000 12903
" />
<path d="M21629 12785
L21629 13414
" />
<path d="M20370 12785
L21629 12785
" />
<path d="M20370 13414
L20370 12785
" />
<path d="M21629 13414
L20370 13414
" />
</g>
<g style="fill:#C2C200; fill-opacity:0.0; 
stroke:#C2C200; stroke-width:39.3701; stroke-opacity:1; 
stroke-linecap:round; stroke-linejoin:round;">
<path d="M17685 13257
L17685 12942
" />
<path d="M18314 13257
L17685 13257
" />
<path d="M18314 12942
L18314 13257
" />
<path d="M17685 12942
L18314 12942
" />
<path d="M24414 4142
L24414 4457
" />
<path d="M23785 4142
L24414 4142
" />
<path d="M23785 4457
L23785 4142
" />
<path d="M24414 4457
L23785 4457
" />
<path d="M26414 4142
L26414 4457
" />
<path d="M25785 4142
L26414 4142
" />
<path d="M25785 4457
L25785 4142
" />
<path d="M26414 4457
L25785 4457
" />
<path d="M13670 15145
L12489 15145
" />
<path d="M12489 15145
L12489 12783
" />
<path d="M12489 12783
L14851 12783
" />
<path d="M14851 12783
L14851 15145
" />
<path d="M14851 15145
L13670 15145
" />
<circle cx="13670.5" cy="13964.2" r="793.529" /> 
</g>
<g style="fill:#C2C200; fill-opacity:0.0; 
stroke:#C2C200; stroke-width:59.0551; stroke-opacity:1; 
stroke-linecap:round; stroke-linejoin:round;">
<path d="M7764 6192
L7764 6507
" />
<path d="M7135 6192
L7764 6192
" />
<path d="M7135 6507
L7135 6192
" />
<path d="M7764 6507
L7135 6507
" />
</g>
<g style="fill:#C2C200; fill-opacity:0.0; 
stroke:#C2C200; stroke-width:39.3701; stroke-opacity:1; 
stroke-linecap:round; stroke-linejoin:round;">
<path d="M22542 4485
L22857 4485
" />
<path d="M22542 5114
L22542 4485
" />
<path d="M22857 5114
L22542 5114
" />
<path d="M22857 4485
L22857 5114
" />
<path d="M22857 6914
L22542 6914
" />
<path d="M22857 6285
L22857 6914
" />
<path d="M22542 6285
L22857 6285
" />
<path d="M22542 6914
L22542 6285
" />
<path d="M22857 8914
L22542 8914
" />
<path d="M22857 8285
L22857 8914
" />
<path d="M22542 8285
L22857 8285
" />
<path d="M22542 8914
L22542 8285
" />
</g>
<g style="fill:#C2C200; fill-opacity:0.0; 
stroke:#C2C200; stroke-width:59.0551; stroke-opacity:1; 
stroke-linecap:round; stroke-linejoin:round;">
<path d="M10593 3853
L10593 4346
" />
<path d="M9806 3853
L10593 3853
" />
<path d="M9806 4346
L9806 3853
" />
<path d="M10593 4346
L9806 4346
" />
<path d="M11957 11714
L11642 11714
" />
<path d="M11957 11085
L11957 11714
" />
<path d="M11642 11085
L11957 11085
" />
<path d="M11642 11714
L11642 11085
" />
<path d="M17740 13484
L17665 13484
L17628 13503
L17609 13521
L17571 13578
L17553 13653
L17553 13803
L17571 13840
L17590 13859
L17628 13878
L17703 13878
L17740 13859
L17759 13840
L17778 13803
L17778 13709
L17759 13671
L17740 13653
L17703 13634
L17628 13634
L17590 13653
L17571 13671
L17553 13709
" />
<path d="M18003 13653
L17965 13634
L17946 13615
L17928 13578
L17928 13559
L17946 13521
L17965 13503
L18003 13484
L18078 13484
L18115 13503
L18134 13521
L18153 13559
L18153 13578
L18134 13615
L18115 13634
L18078 13653
L18003 13653
L17965 13671
L17946 13690
L17928 13728
L17928 13803
L17946 13840
L17965 13859
L18003 13878
L18078 13878
L18115 13859
L18134 13840
L18153 13803
L18153 13728
L18134 13690
L18115 13671
L18078 13653
" />
<path d="M18546 13878
L18415 13690
" />
<path d="M18321 13878
L18321 13484
L18471 13484
L18509 13503
L18528 13521
L18546 13559
L18546 13615
L18528 13653
L18509 13671
L18471 13690
L18321 13690
" />
<path d="M23746 3165
L23746 3428
" />
<path d="M23653 3015
L23559 3296
L23803 3296
" />
<path d="M23971 3409
L23971 3428
L23953 3465
L23934 3484
" />
<path d="M24103 3034
L24365 3034
L24196 3428
" />
<path d="M24515 3428
L24515 3034
" />
<path d="M24740 3428
L24571 3203
" />
<path d="M24740 3034
L24515 3259
" />
<path d="M25746 3165
L25746 3428
" />
<path d="M25653 3015
L25559 3296
L25803 3296
" />
<path d="M25971 3409
L25971 3428
L25953 3465
L25934 3484
" />
<path d="M26103 3034
L26365 3034
L26196 3428
" />
<path d="M26515 3428
L26515 3034
" />
<path d="M26740 3428
L26571 3203
" />
<path d="M26740 3034
L26515 3259
" />
<path d="M11171 11659
L11153 11640
L11134 11603
L11134 11509
L11153 11471
L11171 11453
L11209 11434
L11246 11434
L11303 11453
L11528 11678
L11528 11434
" />
<path d="M11528 11265
L11134 11265
" />
<path d="M11528 11040
L11303 11209
" />
<path d="M11134 11040
L11359 11265
" />
</g>
<g style="fill:#000000; fill-opacity:0.0; 
stroke:#000000; stroke-width:59.0551; stroke-opacity:1; 
stroke-linecap:round; stroke-linejoin:round;">
</g>
<g style="fill:#000084; fill-opacity:0.0; 
stroke:#000084; stroke-width:59.0551; stroke-opacity:1; 
stroke-linecap:round; stroke-linejoin:round;">
<circle cx="7500" cy="15500" r="1102.36" /> 
<circle cx="33000" cy="3500" r="1102.36" /> 
<circle cx="7500" cy="3500" r="1102.36" /> 
<circle cx="33000" cy="15500" r="1102.36" /> 
</g>
<g style="fill:#000000; fill-opacity:0.0; 
stroke:#000000; stroke-width:59.0551; stroke-opacity:1; 
stroke-linecap:round; stroke-linejoin:round;">
</g>
<g style="fill:#C2C200; fill-opacity:0.0; 
stroke:#C2C200; stroke-width:59.0551; stroke-opacity:1; 
stroke-linecap:round; stroke-linejoin:round;">
<path d="M7500 1500
L33000 1500
" />
<path d="M7500 17500
L33000 17500
" />
<path d="M7500 1500 A2000 2000 0.0 0 0 5500 3500 " />
<path d="M5500 15500 A2000 2000 0.0 0 0 7500 17500 " />
<path d="M33000 17500 A2000 2000 0.0 0 0 35000 15500 " />
<path d="M35000 3500 A2000 2000 0.0 0 0 33000 1500 " />
<path d="M35000 15500
L35000 3500
" />
<path d="M5500 15500
L5500 3500
" />
</g> 
</svg>
